<svg width="56" height="20" viewBox="0 0 56 20" fill="none" xmlns="http://www.w3.org/2000/svg">
<path d="M43.056 0.183999V6.592C42.608 7.04 42.128 7.592 41.616 8.248V0.183999H43.056ZM45.168 0.183999V5.152C44.624 5.392 44.152 5.696 43.752 6.064V0.183999H45.168ZM9.888 19.408C8.176 19.408 6.632 19.016 5.256 18.232C3.88 17.432 2.8 16.344 2.016 14.968C1.232 13.576 0.84 12.024 0.84 10.312C0.84 8.648 1.248 7.128 2.064 5.752C2.88 4.376 3.992 3.296 5.4 2.512C6.824 1.712 8.392 1.312 10.104 1.312C12.28 1.312 14.072 1.808 15.48 2.8V4.216C14.808 3.72 14.016 3.352 13.104 3.112C12.192 2.856 11.192 2.728 10.104 2.728C8.68 2.728 7.376 3.064 6.192 3.736C5.008 4.408 4.072 5.328 3.384 6.496C2.696 7.648 2.352 8.92 2.352 10.312C2.352 11.752 2.68 13.056 3.336 14.224C3.992 15.392 4.896 16.312 6.048 16.984C7.2 17.656 8.48 17.992 9.888 17.992C11.824 17.992 13.352 17.448 14.472 16.36C15.592 15.272 16.152 13.784 16.152 11.896V10.576H10.056V9.184H17.496V11.656C17.496 13.24 17.184 14.616 16.56 15.784C15.952 16.952 15.072 17.848 13.92 18.472C12.784 19.096 11.44 19.408 9.888 19.408ZM9.888 17.272C8.624 17.272 7.472 16.968 6.432 16.36C5.392 15.752 4.568 14.92 3.96 13.864C3.368 12.792 3.072 11.608 3.072 10.312C3.072 9.048 3.384 7.896 4.008 6.856C4.632 5.8 5.48 4.968 6.552 4.36C7.64 3.752 8.824 3.448 10.104 3.448C11.096 3.448 12.064 3.584 13.008 3.856C13.952 4.128 14.776 4.512 15.48 5.008V6.376L15.384 6.448C14.568 5.904 13.736 5.504 12.888 5.248C12.04 4.992 11.128 4.864 10.152 4.864C9.112 4.864 8.168 5.104 7.32 5.584C6.488 6.048 5.832 6.696 5.352 7.528C4.888 8.36 4.656 9.288 4.656 10.312C4.656 11.384 4.872 12.344 5.304 13.192C5.752 14.024 6.376 14.672 7.176 15.136C7.976 15.6 8.88 15.832 9.888 15.832C10.656 15.832 11.344 15.704 11.952 15.448C12.576 15.176 13.064 14.808 13.416 14.344C13.768 13.864 13.944 13.336 13.944 12.76H10.056V11.32H15.432V12.256C15.432 13.232 15.2 14.104 14.736 14.872C14.272 15.624 13.616 16.216 12.768 16.648C11.936 17.064 10.976 17.272 9.888 17.272ZM33.264 19.408C31.92 19.408 30.72 19.112 29.664 18.52C28.608 17.928 27.784 17.104 27.192 16.048C26.6 14.992 26.304 13.8 26.304 12.472C26.304 11.08 26.608 9.824 27.216 8.704C27.824 7.568 28.656 6.68 29.712 6.04C30.784 5.4 31.968 5.08 33.264 5.08C34.56 5.08 35.728 5.384 36.768 5.992C37.808 6.584 38.616 7.416 39.192 8.488C39.784 9.544 40.08 10.728 40.08 12.04V19H38.64V12.064C38.64 11.024 38.408 10.088 37.944 9.256C37.48 8.408 36.84 7.752 36.024 7.288C35.208 6.808 34.288 6.568 33.264 6.568C32.208 6.568 31.264 6.824 30.432 7.336C29.6 7.832 28.944 8.528 28.464 9.424C28 10.32 27.768 11.336 27.768 12.472C27.768 13.544 28 14.496 28.464 15.328C28.928 16.16 29.576 16.816 30.408 17.296C31.24 17.76 32.192 17.992 33.264 17.992C34.336 17.992 35.192 17.736 35.832 17.224V18.64C35.464 18.912 35.08 19.104 34.68 19.216C34.296 19.344 33.824 19.408 33.264 19.408ZM48.6 19.408C47.112 19.408 45.816 19.024 44.712 18.256C43.608 17.472 42.848 16.488 42.432 15.304L43.44 13.936C43.6 14.704 43.928 15.4 44.424 16.024C44.936 16.632 45.552 17.112 46.272 17.464C47.008 17.816 47.792 17.992 48.624 17.992C49.632 17.992 50.536 17.744 51.336 17.248C52.152 16.736 52.792 16.048 53.256 15.184C53.72 14.304 53.952 13.328 53.952 12.256C53.952 11.168 53.712 10.192 53.232 9.328C52.768 8.448 52.12 7.768 51.288 7.288C50.472 6.792 49.552 6.544 48.528 6.544C47.424 6.544 46.456 6.808 45.624 7.336C44.792 7.864 43.92 8.688 43.008 9.808C42.608 10.288 41.856 11.272 40.752 12.76V10.648C41.552 9.496 42.248 8.576 42.84 7.888C43.432 7.184 44.216 6.544 45.192 5.968C46.168 5.376 47.28 5.08 48.528 5.08C49.824 5.08 50.992 5.392 52.032 6.016C53.072 6.64 53.888 7.504 54.48 8.608C55.072 9.696 55.368 10.912 55.368 12.256C55.368 13.584 55.072 14.792 54.48 15.88C53.904 16.968 53.096 17.832 52.056 18.472C51.032 19.096 49.88 19.408 48.6 19.408ZM18.456 11.584C18.456 10.32 18.712 9.208 19.224 8.248C19.736 7.288 20.456 6.544 21.384 6.016C22.328 5.488 23.416 5.224 24.648 5.224C25.992 5.224 27.128 5.56 28.056 6.232C27.704 6.536 27.392 6.856 27.12 7.192C26.896 7.032 26.552 6.896 26.088 6.784C25.624 6.672 25.168 6.616 24.72 6.616C23.776 6.616 22.936 6.824 22.2 7.24C21.464 7.656 20.888 8.24 20.472 8.992C20.072 9.744 19.872 10.6 19.872 11.56V19H18.456V11.584ZM48.624 17.296C47.792 17.296 47.032 17.088 46.344 16.672C45.672 16.256 45.128 15.736 44.712 15.112C44.312 14.472 44.08 13.848 44.016 13.24L45.12 11.728H45.168V11.944C45.168 12.632 45.312 13.28 45.6 13.888C45.904 14.48 46.32 14.96 46.848 15.328C47.376 15.68 47.968 15.856 48.624 15.856C49.568 15.856 50.336 15.52 50.928 14.848C51.52 14.16 51.816 13.288 51.816 12.232C51.816 11.208 51.504 10.36 50.88 9.688C50.272 9 49.48 8.656 48.504 8.656C47.928 8.656 47.416 8.768 46.968 8.992C46.52 9.216 46.12 9.512 45.768 9.88C45.416 10.248 44.952 10.776 44.376 11.464C44.184 11.72 44.032 11.912 43.92 12.04C42.592 13.64 41.536 15.024 40.752 16.192V13.888L42.408 11.68C42.584 11.456 42.856 11.104 43.224 10.624C44.104 9.424 44.96 8.56 45.792 8.032C46.64 7.488 47.552 7.216 48.528 7.216C49.424 7.216 50.232 7.432 50.952 7.864C51.688 8.296 52.256 8.896 52.656 9.664C53.072 10.432 53.28 11.288 53.28 12.232C53.28 13.176 53.072 14.04 52.656 14.824C52.256 15.592 51.704 16.2 51 16.648C50.296 17.08 49.504 17.296 48.624 17.296ZM36.552 12.16C36.552 11.152 36.24 10.32 35.616 9.664C34.992 8.992 34.2 8.656 33.24 8.656C32.264 8.656 31.464 9.016 30.84 9.736C30.216 10.456 29.904 11.376 29.904 12.496C29.904 13.536 30.208 14.36 30.816 14.968C31.424 15.56 32.248 15.856 33.288 15.856C33.784 15.856 34.248 15.792 34.68 15.664C35.128 15.52 35.496 15.328 35.784 15.088L35.832 15.112V16.528C35.144 17.04 34.288 17.296 33.264 17.296C32.32 17.296 31.48 17.096 30.744 16.696C30.024 16.296 29.456 15.736 29.04 15.016C28.64 14.28 28.44 13.44 28.44 12.496C28.44 11.472 28.64 10.568 29.04 9.784C29.456 8.984 30.032 8.36 30.768 7.912C31.504 7.464 32.336 7.24 33.264 7.24C34.16 7.24 34.96 7.448 35.664 7.864C36.384 8.28 36.944 8.856 37.344 9.592C37.76 10.328 37.968 11.16 37.968 12.088V19H36.552V12.16ZM20.568 11.56C20.568 10.728 20.744 9.992 21.096 9.352C21.448 8.696 21.936 8.192 22.56 7.84C23.184 7.472 23.896 7.288 24.696 7.288C25.368 7.288 26.032 7.472 26.688 7.84C26.528 8.096 26.32 8.496 26.064 9.04C25.648 8.832 25.184 8.728 24.672 8.728C23.872 8.728 23.224 8.992 22.728 9.52C22.232 10.048 21.984 10.736 21.984 11.584V19H20.568V11.56Z" fill="#00B14F"/>
</svg>
